<svg width="512" height="512" viewBox="0 0 512 512" fill="none" xmlns="http://www.w3.org/2000/svg">
<path d="M345.993 2.41597C338.004 7.10937 324.623 20.5904 308.645 40.0631V41.2614L322.626 67.125L323.325 67.6243C333.61 52.945 343.996 39.6636 354.581 28.3795C355.38 27.4807 355.779 27.0813 355.779 27.0813C355.38 27.4807 354.98 27.98 354.581 28.3795C351.186 32.1742 340.8 44.1573 325.222 68.1236L327.02 68.5231C327.02 68.5231 363.468 64.9281 381.044 61.9323L382.042 61.0336C387.634 29.6777 376.55 15.2979 376.55 15.2979C376.55 15.2979 362.57 -7.27042 345.993 2.41597Z" fill="url(#paint0_linear_102_1261)"/>
<path d="M280.186 139.024C284.68 130.736 289.174 122.547 293.667 114.658C298.361 106.47 303.154 98.4809 308.047 90.7917C308.347 90.3922 308.646 89.8929 308.846 89.3936C313.639 81.8043 318.433 74.6144 323.326 67.6242L308.646 39.9631C307.548 41.2613 306.449 42.6593 305.351 44.0573C301.157 49.3499 296.763 54.942 292.269 60.9336C287.176 67.7241 281.984 74.914 276.691 82.5033C271.798 89.4935 266.805 96.8831 261.912 104.373C257.718 110.863 253.424 117.454 249.23 124.345C249.03 124.644 248.93 124.844 248.73 125.143V126.242L267.005 162.491L267.804 162.791C271.898 154.802 275.992 146.813 280.186 139.024Z" fill="url(#paint1_linear_102_1261)"/>
<path d="M200.599 316.475C203.895 307.887 207.39 299.199 210.885 290.411C214.28 282.023 217.675 273.535 221.27 265.047C224.765 256.559 228.46 248.071 232.155 239.483C235.95 230.795 239.744 222.107 243.639 213.519C247.533 205.031 251.428 196.543 255.422 188.155C256.82 185.159 258.318 182.064 259.816 179.068C262.313 173.875 264.909 168.682 267.405 163.59C267.505 163.29 267.705 163.09 267.805 162.791L248.732 125.144C248.432 125.643 248.132 126.142 247.833 126.641C243.439 133.931 238.945 141.321 234.651 148.91C230.258 156.599 225.964 164.388 221.77 172.277C218.175 178.968 214.779 185.659 211.384 192.449C210.685 193.847 210.086 195.145 209.387 196.543C205.193 205.131 201.498 213.32 198.103 221.308C194.308 230.296 190.913 238.884 187.917 247.072C185.92 252.465 184.222 257.558 182.525 262.55C181.227 266.745 179.928 271.039 178.73 275.233C175.834 285.219 173.437 295.105 171.44 305.091L171.74 306.289L190.014 342.638L190.613 342.938C193.11 336.147 195.706 329.357 198.402 322.366C199.101 320.369 199.9 318.472 200.599 316.475Z" fill="url(#paint2_linear_102_1261)"/>
<path d="M171.239 306.389C168.843 318.472 167.145 330.555 166.246 342.538C166.246 342.938 166.146 343.337 166.146 343.836C160.155 334.25 144.177 324.963 144.177 324.963C155.661 341.539 164.349 358.016 165.647 374.194C159.556 375.492 151.167 373.594 141.381 370.099C151.467 379.386 159.056 381.983 162.052 382.682C152.765 383.281 143.079 389.672 133.293 396.962C147.573 391.17 159.056 388.873 167.345 390.67C154.263 427.718 141.181 468.661 128 512C131.994 510.802 134.391 508.105 135.789 504.411C138.086 496.522 153.664 444.994 177.93 377.189C178.629 375.292 179.328 373.295 180.027 371.398C180.227 370.898 180.426 370.299 180.626 369.8C183.222 362.71 185.819 355.42 188.615 348.03C189.214 346.333 189.913 344.635 190.512 342.938V342.838L171.439 305.091C171.439 305.59 171.339 305.989 171.239 306.389Z" fill="url(#paint3_linear_102_1261)"/>
<path d="M325.225 68.2236C320.931 74.8143 316.237 82.3038 311.144 90.7918C310.845 91.1913 310.645 91.6906 310.346 92.09C305.952 99.4796 301.358 107.468 296.465 116.356C292.271 123.945 287.877 132.134 283.284 141.021C279.289 148.71 275.195 156.799 271.001 165.487L271.9 165.886L318.334 160.893L319.433 160.094C333.513 153.604 339.804 147.712 345.896 139.224C347.493 136.927 349.191 134.431 350.789 131.934C355.782 124.145 360.675 115.657 364.969 107.169C369.163 98.9803 372.858 90.7918 375.754 83.5021C377.551 78.8087 379.049 74.5147 380.048 70.72C380.946 67.3248 381.645 64.1293 382.145 61.1335C363.371 64.4289 340.303 67.5245 325.225 68.2236Z" fill="url(#paint4_linear_102_1261)"/>
<path d="M269.2 169.381C267.603 172.777 265.905 176.272 264.207 179.767C262.41 183.561 260.513 187.556 258.715 191.55C257.816 193.547 256.818 195.644 255.919 197.642C253.023 203.833 250.227 210.224 247.231 216.815C243.636 224.903 239.941 233.391 236.247 242.079C232.652 250.467 229.057 259.055 225.462 268.043C221.967 276.531 218.472 285.318 214.976 294.306C211.781 302.394 208.585 310.583 205.39 319.171C205.19 319.57 205.09 319.97 204.891 320.369C201.695 328.857 198.578 337.492 195.283 346.38C195.183 346.579 195.005 347.099 194.905 347.299L195.595 347.452L209.484 345.958L210.268 345.634C209.969 345.534 209.784 345.134 209.484 345.034C227.858 342.738 252.324 328.957 268.202 311.981C275.491 304.192 282.082 294.905 288.273 284.12C292.867 276.031 297.061 267.144 301.155 257.258C304.75 248.67 308.146 239.283 311.441 229.197C307.247 231.394 302.354 233.092 297.061 234.19C296.162 234.39 295.164 234.59 294.165 234.789C293.167 234.989 292.168 235.089 291.269 235.289C308.445 228.698 319.23 215.916 327.119 200.338C322.625 203.433 315.236 207.428 306.448 209.425C305.25 209.725 304.051 209.924 302.753 210.124C302.454 210.124 302.154 210.224 301.854 210.224C307.846 207.727 312.839 204.931 317.233 201.636C318.132 200.937 319.03 200.238 319.929 199.439C321.227 198.241 322.525 197.042 323.724 195.844C324.523 195.045 325.222 194.246 326.02 193.348C327.718 191.35 329.316 189.154 330.814 186.757C331.313 186.058 331.712 185.259 332.212 184.56C332.811 183.462 333.31 182.363 333.81 181.265C336.206 176.471 338.103 172.177 339.601 168.383C340.4 166.485 340.999 164.788 341.599 163.09C341.798 162.491 341.998 161.792 342.298 161.193C342.897 159.395 343.396 157.798 343.795 156.3C344.395 154.203 344.694 152.505 344.894 151.307C344.295 151.806 343.696 152.205 342.897 152.705C337.704 155.8 328.817 158.596 321.627 159.895L335.807 158.297L321.627 159.895C320.628 160.094 319.929 160.194 319.13 160.394C319.197 160.327 303.181 162.021 271.084 165.474C270.884 165.674 269.7 168.183 269.2 169.381Z" fill="url(#paint5_linear_102_1261)"/>
<path d="M193.409 351.026C190.913 357.916 188.316 365.006 185.82 372.196C185.82 372.296 185.72 372.396 185.72 372.496C185.321 373.495 185.021 374.493 184.622 375.592C182.924 380.485 181.426 384.779 178.031 394.765C183.623 397.361 188.117 404.052 192.411 411.741C192.011 403.852 188.716 396.362 182.425 390.67C210.086 391.869 233.952 384.879 246.235 364.707C247.334 362.909 248.332 361.012 249.231 359.015C243.639 366.105 236.649 369.101 223.667 368.402H223.567H223.667C242.94 359.814 252.526 351.525 261.114 337.845C263.111 334.549 265.109 331.054 267.106 327.16C250.229 344.435 230.757 349.328 210.286 345.634L194.907 347.331C194.408 348.43 193.909 349.728 193.409 351.026Z" fill="url(#paint6_linear_102_1261)"/>
<defs>
<linearGradient id="paint0_linear_102_1261" x1="320.913" y1="43.7898" x2="426.826" y2="8.53793" gradientUnits="userSpaceOnUse">
<stop stop-color="#F69923"/>
<stop offset="0.3123" stop-color="#F79A23"/>
<stop offset="0.8383" stop-color="#E97826"/>
</linearGradient>
<linearGradient id="paint1_linear_102_1261" x1="86.3733" y1="524.729" x2="448.135" y2="238.577" gradientUnits="userSpaceOnUse">
<stop offset="0.3233" stop-color="#9E2064"/>
<stop offset="0.6302" stop-color="#C92037"/>
<stop offset="0.7514" stop-color="#CD2335"/>
<stop offset="1" stop-color="#E97826"/>
</linearGradient>
<linearGradient id="paint2_linear_102_1261" x1="94.3062" y1="496.305" x2="446.602" y2="348.396" gradientUnits="userSpaceOnUse">
<stop offset="0.3233" stop-color="#9E2064"/>
<stop offset="0.6302" stop-color="#C92037"/>
<stop offset="0.7514" stop-color="#CD2335"/>
<stop offset="1" stop-color="#E97826"/>
</linearGradient>
<linearGradient id="paint3_linear_102_1261" x1="116.55" y1="465.156" x2="273.25" y2="434.482" gradientUnits="userSpaceOnUse">
<stop stop-color="#282662"/>
<stop offset="0.0954839" stop-color="#662E8D"/>
<stop offset="0.7882" stop-color="#9F2064"/>
<stop offset="0.9487" stop-color="#CD2032"/>
</linearGradient>
<linearGradient id="paint4_linear_102_1261" x1="126.755" y1="546.888" x2="324.068" y2="70.527" gradientUnits="userSpaceOnUse">
<stop offset="0.3233" stop-color="#9E2064"/>
<stop offset="0.6302" stop-color="#C92037"/>
<stop offset="0.7514" stop-color="#CD2335"/>
<stop offset="1" stop-color="#E97826"/>
</linearGradient>
<linearGradient id="paint5_linear_102_1261" x1="142.588" y1="519.483" x2="455.586" y2="126.595" gradientUnits="userSpaceOnUse">
<stop offset="0.3233" stop-color="#9E2064"/>
<stop offset="0.6302" stop-color="#C92037"/>
<stop offset="0.7514" stop-color="#CD2335"/>
<stop offset="1" stop-color="#E97826"/>
</linearGradient>
<linearGradient id="paint6_linear_102_1261" x1="159.665" y1="490.032" x2="278.746" y2="206.797" gradientUnits="userSpaceOnUse">
<stop stop-color="#282662"/>
<stop offset="0.0954839" stop-color="#662E8D"/>
<stop offset="0.7882" stop-color="#9F2064"/>
<stop offset="0.9487" stop-color="#CD2032"/>
</linearGradient>
</defs>
</svg>
