<svg width="512" height="512" viewBox="0 0 512 512" fill="none" xmlns="http://www.w3.org/2000/svg">
<path d="M502.962 321.639C492.492 357.284 473.073 389.24 444.661 417.465L443.411 418.715C407.932 453.965 366.616 475.1 319.504 482.211C307.599 484.006 295.342 484.949 282.692 484.949C219.408 484.949 165.292 462.474 120.287 417.465C92.0576 389.231 72.7753 357.284 62.3842 321.639H502.962ZM511.807 268.343C511.385 276.835 510.508 285.133 509.236 293.271L508.798 295.978H56.5911C55.237 287.875 54.2778 279.616 53.7612 271.167L53.6055 268.343H511.807ZM508.788 215.048C510.151 223.155 511.115 231.415 511.636 239.86L511.793 242.682H53.6055C54.0231 234.195 54.8925 225.898 56.1556 217.756L56.5911 215.048H508.788Z" fill="#2C2255"/>
<path d="M502.972 189.382C492.51 153.638 473.087 121.542 444.661 93.1105C408.997 57.4471 367.381 36.051 319.869 28.8517C307.852 27.0285 295.473 26.0724 282.692 26.0724C219.408 26.0724 165.287 48.4247 120.287 93.1105C92.0482 121.542 72.7565 153.638 62.3701 189.382" fill="#2C2255"/>
<path d="M39.9801 255.52C39.9801 134.483 130.885 33.9137 249.142 16.225C246.208 16.1172 243.26 16 240.298 16C107.59 16 0 123.239 0 255.52C0 387.806 107.585 495.04 240.298 495.04C243.269 495.04 246.218 494.927 249.161 494.819C130.885 477.131 39.9801 376.562 39.9801 255.52Z" fill="#F7941E"/>
<path d="M438.624 242.677C437.855 233.205 436.261 223.967 433.88 215.043H131.522C129.141 223.962 127.543 233.2 126.774 242.677H438.624Z" fill="url(#paint0_linear_322_875)"/>
<path d="M438.624 268.343H126.779C127.547 277.816 129.136 287.054 131.522 295.978H433.885C436.266 287.054 437.855 277.816 438.624 268.343Z" fill="url(#paint1_linear_322_875)"/>
<path d="M282.701 412.009C345.493 412.009 399.618 375.015 424.544 321.639H140.858C165.784 375.015 219.909 412.009 282.701 412.009Z" fill="url(#paint2_linear_322_875)"/>
<path d="M508.736 295.973C507.194 304.71 505.174 313.278 502.671 321.639H62.3792C59.8717 313.273 58.1234 304.705 56.5861 295.973H508.736ZM511.403 242.677C511.656 247.097 511.82 251.536 511.82 256.012C511.82 260.151 511.699 264.261 511.483 268.343H53.5255C53.3098 264.261 53.188 260.151 53.188 256.012C53.188 251.536 53.352 247.093 53.6051 242.677H511.403ZM501.172 189.382C503.717 197.743 505.756 206.316 507.34 215.048H56.5908C58.1703 206.311 59.8154 197.738 62.3651 189.382H501.172Z" fill="white"/>
<defs>
<linearGradient id="paint0_linear_322_875" x1="282.698" y1="516.093" x2="282.698" y2="170.966" gradientUnits="userSpaceOnUse">
<stop offset="0.3033" stop-color="#473788"/>
<stop offset="0.872" stop-color="#2C2255"/>
</linearGradient>
<linearGradient id="paint1_linear_322_875" x1="282.698" y1="516.097" x2="282.698" y2="170.971" gradientUnits="userSpaceOnUse">
<stop offset="0.3033" stop-color="#473788"/>
<stop offset="0.872" stop-color="#2C2255"/>
</linearGradient>
<linearGradient id="paint2_linear_322_875" x1="282.698" y1="516.089" x2="282.698" y2="170.979" gradientUnits="userSpaceOnUse">
<stop offset="0.3033" stop-color="#473788"/>
<stop offset="0.8631" stop-color="#2C2255"/>
</linearGradient>
</defs>
</svg>
