<svg width="512" height="512" viewBox="0 0 512 512" fill="none" xmlns="http://www.w3.org/2000/svg">
<g clip-path="url(#clip0_102_1960)">
<path d="M235.768 210.454H275.357L285.193 196.989V91.5336H225.938V197L235.768 210.454Z" fill="#8A4182"/>
<path d="M210.25 257.489L222.48 220.054L212.644 206.593L111.776 174.007L93.4675 230.038L194.346 262.631L210.25 257.489Z" fill="#8A4182"/>
<path d="M247.353 296.16L215.328 273.019L199.41 278.164L137.074 363.483L185.009 398.111L247.353 312.789V296.16Z" fill="#8A4182"/>
<path d="M295.804 273.015L263.771 296.153L263.779 312.793L326.117 398.111L374.055 363.483L311.706 278.157L295.804 273.015Z" fill="#8A4182"/>
<path d="M288.637 220.047L300.873 257.485L316.789 262.623L417.659 230.038L399.346 174.003L298.473 206.596L288.637 220.047Z" fill="#8A4182"/>
<path d="M255.575 -0.000823975C114.652 -0.000823975 0 113.984 0 254.09C0 394.247 114.652 508.264 255.575 508.264C396.484 508.264 511.124 394.247 511.124 254.09C511.124 113.984 396.484 -0.000823975 255.575 -0.000823975ZM255.575 51.4487C368.113 51.4487 459.375 142.162 459.375 254.09C459.375 366.054 368.113 456.807 255.575 456.807C142.999 456.807 51.7487 366.054 51.7487 254.09C51.7487 142.162 142.999 51.4487 255.575 51.4487Z" fill="#8A4182"/>
<path d="M410.364 310.569L333.688 285.794L338.757 270.264L415.433 295.039L410.364 310.569Z" fill="#8A4182"/>
<path d="M312.571 188.166L299.284 178.57L346.669 113.713L359.957 123.309L312.571 188.166Z" fill="#8A4182"/>
<path d="M199.377 187.577L151.998 122.716L165.286 113.12L212.665 177.977L199.377 187.577Z" fill="#8A4182"/>
<path d="M100.449 309.6L95.3767 294.07L172.045 269.305L177.118 284.835L100.449 309.6Z" fill="#8A4182"/>
<path d="M246.848 416.104H263.27V335.934H246.848V416.104Z" fill="#8A4182"/>
</g>
<defs>
<clipPath id="clip0_102_1960">
<rect width="512" height="512" fill="white"/>
</clipPath>
</defs>
</svg>
