<svg width="512" height="512" viewBox="0 0 512 512" fill="none" xmlns="http://www.w3.org/2000/svg">
<g id="Type=Default">
<path id="Shape" fill-rule="evenodd" clip-rule="evenodd" d="M505.53 255.53C505.53 393.341 393.811 505.06 256 505.06C118.188 505.06 6.46997 393.341 6.46997 255.53C6.46997 117.718 118.188 6 256 6C393.811 6 505.53 117.718 505.53 255.53Z" fill="#3A3C5B"/>
<path id="Shape_2" fill-rule="evenodd" clip-rule="evenodd" d="M429.83 273.986C421.422 220.934 365.762 186.569 324.315 160.65C306.209 149.329 276.854 134.58 273.057 110.768C271.49 100.928 271.547 90.7613 271.218 80.8252C271.088 76.9239 271.028 73 270.68 69.1081C270.228 64.0874 265.119 70.2754 262.318 65.8938C255.379 55.0461 258.05 69.1814 258.732 74.8853C260.337 88.3017 262.223 101.679 262.115 115.221C261.907 141.102 257.737 165.878 251.284 190.814C236.17 249.211 224.248 309.042 239.199 368.801C242.297 381.182 246.33 393.398 251.628 405.02C253.229 408.534 256.295 418.342 260.702 419.517C276.572 423.752 288.573 424.978 301.248 436.784C309.118 444.114 315.02 440.11 324.328 436.385C352.524 425.102 376.959 410.901 396.938 387.664C425.023 355.001 436.609 316.763 429.83 273.986ZM400.009 327.403C397.507 349.224 383.82 368.77 369.843 384.976C359.712 396.723 346.004 411.968 330.982 417.317C325.574 419.242 331.972 408.424 332.765 407.231C337.416 400.239 343.146 394.07 348.466 387.6C356.338 378.033 363.156 367.991 367.763 356.404C383.06 317.951 379.585 271.341 356.946 236.7C344.62 217.839 327.704 201.898 310.651 187.354C302.413 180.327 294.076 173.683 287.143 165.274C285.54 163.333 271.38 144.796 275.785 142.055C277.208 141.169 308.155 173.723 311.521 176.264C324.318 185.927 337.479 194.861 349.328 205.742C365.364 220.474 381.833 236.93 391.02 256.965C401.088 278.918 402.727 303.666 400.009 327.403Z" fill="white"/>
<path id="Shape_3" fill-rule="evenodd" clip-rule="evenodd" d="M246.809 12.7256C251.455 15.8233 252.486 33.8891 252.486 50.406C252.486 66.9267 254.035 138.16 248.873 157.259C243.712 176.359 231.839 197.523 218.934 216.106C206.03 234.689 191.06 273.919 191.576 298.18C192.091 322.443 206.03 362.188 216.87 378.707C227.751 395.288 246.222 418.397 242.163 423.617C234.935 432.908 205.514 400.903 190.028 382.321C174.541 363.738 159.055 326.054 158.54 296.633C158.023 267.209 174.541 239.85 186.414 223.334C198.288 206.815 221.515 178.424 227.71 165.52C233.903 152.615 240.615 138.679 242.68 120.61C244.744 102.543 242.68 38.0179 242.68 38.0179C242.68 38.0179 242.163 9.62782 246.809 12.7256Z" fill="white"/>
<path id="Shape_4" fill-rule="evenodd" clip-rule="evenodd" d="M234.42 43.1804C239.065 45.2453 239.582 50.9229 239.582 56.6024C239.582 62.2801 238.033 85.5094 236.485 108.222C234.935 130.934 216.87 150.034 203.448 163.454C190.028 176.874 151.313 218.687 136.859 239.336C122.406 259.983 115.203 287.18 116.728 310.054C118.276 333.282 123.954 355.994 145.635 380.257C167.316 404.517 182.285 415.873 193.64 421.553C204.997 427.227 216.354 431.358 213.773 436.522C211.191 441.682 200.351 438.069 188.478 433.941C176.606 429.809 136.343 413.294 113.114 386.967C89.8863 360.639 78.0142 325.539 79.0461 291.985C80.0771 258.433 89.3704 244.496 104.856 222.816C120.341 201.136 163.185 169.133 176.606 160.874C190.028 152.615 208.093 138.678 216.87 127.321C225.645 115.964 230.29 106.671 229.774 91.1861C229.258 75.7011 230.807 61.7631 230.29 56.6024C229.774 51.4408 229.774 41.1175 234.42 43.1804Z" fill="white"/>
<path id="Shape_5" fill-rule="evenodd" clip-rule="evenodd" d="M235.713 447.803C237.812 447.718 236.486 456.814 232.779 461.328C229.072 465.84 222.707 468.554 221.933 466.739C221.156 464.922 226.53 463.878 230.475 459.487C234.097 455.455 233.139 447.907 235.713 447.803Z" fill="white"/>
<path id="Shape_6" fill-rule="evenodd" clip-rule="evenodd" d="M277.49 447.564C275.392 447.477 276.718 456.572 280.425 461.085C284.132 465.597 290.497 468.313 291.27 466.497C292.046 464.68 286.673 463.637 282.728 459.245C279.106 455.216 280.065 447.664 277.49 447.564Z" fill="white"/>
<path id="Shape_7" fill-rule="evenodd" clip-rule="evenodd" d="M258.919 457.431C258.919 465.376 259.324 471.814 257.59 471.814C255.455 471.814 256.26 465.376 256.26 457.431C256.26 449.488 255.536 443.047 257.59 443.047C259.483 443.047 258.919 449.488 258.919 457.431Z" fill="white"/>
</g>
</svg>
