<svg width="114" height="114" viewBox="0 0 114 114" fill="none" xmlns="http://www.w3.org/2000/svg">
    <mask id="mask0_321_1439" style="mask-type:alpha" maskUnits="userSpaceOnUse" x="0" y="0" width="114" height="114">
        <rect width="114" height="114" rx="27" fill="#D9D9D9" />
    </mask>
    <g mask="url(#mask0_321_1439)">
    </g>
    <g clip-path="url(#clip0_321_1439)">
        <mask id="mask1_321_1439" style="mask-type:luminance" maskUnits="userSpaceOnUse" x="10" y="28" width="95"
            height="58">
            <path d="M10.0039 28.5742H104.669V85.3733H10.0039V28.5742Z" fill="white" />
        </mask>
        <g mask="url(#mask1_321_1439)">
            <path fill-rule="evenodd" clip-rule="evenodd"
                d="M57.3365 28.5742C44.7145 28.5742 36.8257 34.8852 33.6702 47.5072C38.4034 41.1962 43.9256 38.8296 50.2366 40.4074C53.8374 41.3067 56.4109 43.9205 59.2596 46.8113C63.8999 51.5217 69.2713 56.9738 81.0028 56.9738C93.6248 56.9738 101.514 50.6628 104.669 38.0407C99.9358 44.3517 94.4136 46.7184 88.1026 45.1406C84.5019 44.2413 81.9284 41.6275 79.0797 38.7367C74.4393 34.0262 69.0679 28.5742 57.3365 28.5742ZM33.6702 56.9738C21.0482 56.9738 13.1594 63.2848 10.0039 75.9068C14.7372 69.5958 20.2593 67.2291 26.5703 68.8069C30.1711 69.708 32.7446 72.32 35.5933 75.2108C40.2336 79.9213 45.605 85.3733 57.3365 85.3733C69.9585 85.3733 77.8473 79.0623 81.0028 66.4403C76.2695 72.7513 70.7474 75.1179 64.4364 73.5402C60.8356 72.6408 58.2621 70.027 55.4134 67.1362C50.773 62.4258 45.4017 56.9738 33.6702 56.9738Z"
                fill="#38BDF8" />
        </g>
    </g>
    <defs>
        <clipPath id="clip0_321_1439">
            <rect width="94.6651" height="57.8509" fill="white" transform="translate(10 28.5742)" />
        </clipPath>
    </defs>
</svg>