<svg width="512" height="512" viewBox="0 0 512 512" fill="none" xmlns="http://www.w3.org/2000/svg">
<path d="M88.596 313.688C94.42 320.872 100.894 328.152 108.02 335.472C87.276 341.714 73.678 353.304 65.194 363.538C51.774 379.736 44.67 401.128 46.304 419.488H10.582C17.746 403.942 46.342 359.03 88.596 313.688Z" fill="#D1A41A"/>
<path d="M502.387 429.23H458.953C359.313 377.236 271.836 340.572 178.906 332.562C179.104 319.63 181.406 304.99 185.834 288.674L177.274 286.372C172.728 303.138 170.346 318.312 170.07 331.892C160.388 331.242 150.646 330.928 140.806 330.928C132.48 330.928 124.884 331.696 117.958 333.034C108.924 324.02 101.23 315.4 94.6957 307.234C137.558 262.598 208.152 222.214 269.592 207.022C286.892 264.526 324.027 303.926 369.093 330.436C372.399 328.546 375.647 326.578 378.835 324.494L457.457 409.136L460.901 408.84C482.371 406.992 494.573 418.642 497.803 422.262C500.183 424.9 501.599 427.322 502.387 429.23Z" fill="#D1A41A"/>
<path d="M464.032 146.112C465.626 224.222 425.774 286.392 369.98 318.274C275.28 271.102 257.45 151.564 273.588 87.446C278.074 111.968 286.242 127.338 303.876 134.876C342.33 123.874 395.25 123.006 434.236 133.754C450.472 121.946 456.77 103.9 460.214 88.136C464.504 106.476 464.012 146.112 464.032 146.112Z" fill="#FFDC76"/>
<path d="M336.44 156.552C339.714 156.552 342.01 157.882 343.67 160.726C347.56 167.418 346.922 180.618 343.696 194.428H317.504V200.166H342.222C339.57 209.588 335.844 218.91 331.65 226.296L330.294 228.684L363.066 249.312L344.616 261.47L347.774 266.264L368.396 252.668L390.658 267.196L393.716 262.34L373.074 249.57C373.074 249.57 403.936 229.524 405.47 228.544C405.46 228.532 405.454 228.52 405.446 228.508L405.482 228.502C398.68 218.474 396.524 209.912 399.356 200.166H401.672L426.56 200.138L426.618 194.428H401.54C406.16 183.556 412.628 173.768 435.716 173.768V168.03C414.414 168.03 401.664 176.488 395.558 194.428H349.596C352.81 180.086 353.368 165.988 348.624 157.838C345.954 153.246 341.738 150.812 336.44 150.812C317.454 150.812 309.958 170.214 309.65 171.04L315.022 173.056C315.29 172.354 321.48 156.552 336.44 156.552ZM368.328 245.844L344.088 230.582L391.46 230.594L368.328 245.844ZM393.518 200.166C391.48 206.662 392.298 216.448 397.314 224.846H338.914C342.466 217.728 345.76 209.052 348.168 200.166H393.518Z" fill="black"/>
<path d="M315.024 173.056H315.022L315.02 173.06L315.024 173.056Z" fill="black"/>
<path d="M504.41 416.204C494.684 405.324 475.632 400.174 459.722 400.556C449.58 388.484 395.768 331.674 384.904 320.218C407.366 304.454 426.874 283.974 441.83 259.65H471.524V253.276H445.588C447.244 250.354 448.822 247.37 450.348 244.346H471.524V237.97H453.432C466.872 208.944 474.31 175.62 473.588 139.148C473.614 139.164 473.64 139.176 473.664 139.19C473.626 129.212 470.52 87.038 464.808 75.426C449.32 81.312 421.138 100.38 414.76 119.88C384.192 115.316 349.732 115.856 319.546 121.08C314.502 100.1 289.19 84.044 270.094 75C262.04 88.592 258.472 120.106 259.378 142.462C259.344 142.484 259.308 142.508 259.272 142.532C260.034 162.73 262.776 181.278 267.19 198.32C201.15 214.684 129.252 257.946 89.0339 299.756C70.2099 274.35 62.7419 253.5 60.5239 237.7C57.7219 217.746 62.4859 199.44 74.2979 184.762C92.7919 161.788 119.068 160.17 146.086 164.714C145.558 168.98 146.118 173.058 147.828 175.582C154.972 186.134 193.374 189.842 216.296 179.616C199.38 155.912 165.116 144.338 155.622 148.976C152.478 150.51 150.104 153.332 148.478 156.622C139.14 154.952 129.866 153.708 123.086 153.758C99.2579 153.934 81.0419 162.26 67.3999 179.21C54.014 195.84 48.604 216.492 51.754 238.932C54.7379 260.186 65.2599 282.792 82.8979 306.236C79.9679 309.378 77.1359 312.482 74.4099 315.53C31.422 363.63 0 415.21 0 423.756V428.184H56.7099L55.7159 422.934C52.514 406.008 58.9099 384.852 72.0099 369.04C80.2339 359.114 93.8539 347.784 115.242 342.556C134.26 361.116 158.488 380.828 185.458 399.844H227.6V395.416C227.6 390.42 225.124 386.046 220.624 383.102C213.966 378.75 203.69 378.15 194.25 381.37C185.25 371.346 180.204 357.956 179.114 341.326C270.576 349.426 358.058 386.36 456.77 437.926H511.082L511.794 434.366C512.807 429.298 510.046 422.508 504.41 416.204ZM273.586 87.3C278.08 111.812 286.23 127.184 303.882 134.726C319.51 130.254 337.54 127.486 356.044 126.464L371.392 160.126L381.232 126.172C399.93 126.778 418.252 129.2 434.224 133.606C450.47 121.794 456.77 103.752 460.21 87.988C464.508 106.332 464.012 145.956 464.024 145.964C464.326 160.76 463.136 174.98 460.636 188.534L443.106 195.984L458.554 198.324C457.326 203.518 455.92 208.612 454.308 213.586L439.36 217.926L451.27 222.214C449.234 227.61 446.994 232.872 444.526 237.97H419.876V244.346H441.284C439.668 247.384 437.968 250.356 436.204 253.276H419.876V259.65H432.194C415.988 284.192 394.528 304.094 369.974 318.126C341.596 303.986 320.128 283.346 304.4 259.65H313.81V253.276H300.346C298.562 250.338 296.86 247.36 295.24 244.346H313.81V237.97H291.95C288.186 230.342 284.92 222.528 282.116 214.622L293.254 211.504L279.21 205.888C277.79 201.306 276.516 196.706 275.386 192.104L297 190.63L272.284 177.516C266.226 144.114 267.442 111.696 273.586 87.3ZM65.1919 363.39C51.778 379.58 44.668 400.966 46.296 419.328H10.572C17.75 403.794 46.3419 358.888 88.5899 313.528C94.4119 320.724 100.896 327.992 108.018 335.32C87.2759 341.556 73.6759 353.15 65.1919 363.39ZM458.942 429.07C359.312 377.084 271.828 340.424 178.9 332.416C179.102 319.484 181.406 304.846 185.822 288.532L177.276 286.216C172.734 302.986 170.342 318.17 170.072 331.742C160.388 331.1 150.642 330.768 140.812 330.768C132.474 330.768 124.88 331.542 117.954 332.888C108.922 323.86 101.226 315.256 94.6879 307.09C106.318 294.974 120.002 283.18 134.976 272.112L155.712 286.43L148.942 262.25C155.246 257.998 161.726 253.888 168.332 249.94L199.062 265.556L184.632 240.678C188.838 238.406 193.078 236.206 197.34 234.086L240.27 262.882L226.172 221.106C240.826 215.2 255.442 210.37 269.578 206.874C272.9 217.898 276.964 228.24 281.658 237.97H262.16V244.346H284.872C286.47 247.384 288.122 250.366 289.848 253.276H262.16V259.65H293.796C313.198 289.766 339.414 312.826 369.086 330.28C372.388 328.394 375.628 326.392 378.824 324.316L386.6 332.688L373.532 352.792L395.822 342.616L408.726 356.508L386.912 373.13L416.95 365.362L457.464 408.978L460.894 408.684C482.37 406.846 494.576 418.492 497.808 422.106C500.178 424.756 501.608 427.174 502.385 429.07H458.942Z" fill="black"/>
</svg>
