<svg width="512" height="512" viewBox="0 0 512 512" fill="none" xmlns="http://www.w3.org/2000/svg">
<path d="M73.9733 400.812C67.856 406.039 59.3181 407.38 51.8933 404.279L13.12 388.012C5.21323 384.714 0.0464568 377.006 0 368.439V140.919C0.0464568 132.352 5.21323 124.644 13.12 121.346L51.8933 105.346C59.3181 102.245 67.856 103.585 73.9733 108.812L82.6667 116.012C79.0722 113.428 74.3328 113.076 70.396 115.101C66.4592 117.126 63.9888 121.186 64 125.612V383.746C63.9888 388.173 66.4592 392.233 70.396 394.257C74.3328 396.282 79.0722 395.93 82.6667 393.346L73.9733 400.812Z" fill="#52218A"/>
<path d="M13.12 388.012C5.21323 384.714 0.0464568 377.006 0 368.439V366.679C0.0537868 371.717 3.16984 376.215 7.86782 378.035C12.5658 379.856 17.8988 378.632 21.3333 374.946L352 9.34575C361.596 -0.202133 376.161 -2.6795 388.373 3.15909L493.867 53.9324C504.956 59.2642 512.005 70.4816 512 82.7858V84.0124C511.993 76.2053 507.491 69.1001 500.435 65.7599C493.378 62.4198 485.029 63.4419 478.987 68.3857L82.6667 393.346L73.9733 400.812C67.856 406.039 59.3181 407.38 51.8933 404.279L13.12 388.012Z" fill="#6C33AF"/>
<path d="M13.12 121.346C5.21323 124.644 0.0464568 132.352 0 140.919V142.679C0.0537868 137.641 3.16984 133.143 7.86782 131.323C12.5658 129.502 17.8988 130.726 21.3333 134.412L352 500.012C361.596 509.56 376.161 512.038 388.373 506.199L493.867 455.426C504.956 450.094 512.005 438.877 512 426.572V425.346C511.993 433.153 507.491 440.258 500.435 443.598C493.378 446.938 485.029 445.916 478.987 440.972L82.6667 116.012L73.9733 108.546C67.802 103.409 59.2691 102.172 51.8933 105.346L13.12 121.346Z" fill="#854CC7"/>
<path d="M388.373 506.199C376.161 512.038 361.596 509.56 352 500.012C357.374 505.348 365.428 506.932 372.423 504.029C379.417 501.127 383.983 494.305 384 486.732V22.7324C384.026 15.14 379.476 8.27946 372.472 5.34934C365.468 2.41922 357.388 3.99648 352 9.34575C361.596 -0.202133 376.161 -2.6795 388.373 3.15909L493.867 53.8791C504.956 59.2109 512.005 70.4283 512 82.7324V426.626C512.005 438.93 504.956 450.147 493.867 455.479L388.373 506.199Z" fill="#B179F1"/>
<path d="M367.413 508.546C374.464 510.155 381.853 509.327 388.373 506.199L493.867 455.479C504.956 450.147 512.005 438.93 512 426.626V82.7324C512.005 70.4283 504.956 59.2109 493.867 53.8791L388.373 3.1591C380.909 -0.428912 372.345 -0.983316 364.48 1.61243C359.777 3.18816 355.504 5.83561 352 9.34576L181.973 197.399L82.6667 116.012L73.9733 108.546C68.6666 104.008 61.4755 102.355 54.72 104.119C53.7454 104.334 52.7975 104.656 51.8933 105.079L13.12 121.346C5.72094 124.401 0.654869 131.341 0 139.319C0 139.852 0 140.386 0 140.919V368.439C0 368.972 0 369.506 0 370.039C0.654869 378.017 5.72094 384.957 13.12 388.012L51.8933 404.012C52.7975 404.435 53.7454 404.757 54.72 404.972C61.4755 406.736 68.6666 405.083 73.9733 400.546L82.6667 393.346L181.973 311.959L352 500.012C356.238 504.243 361.578 507.2 367.413 508.546ZM384 146.306L251.787 254.679L384 363.052V146.306ZM64 181.452L130.187 254.679L64 327.906V181.452Z" fill="url(#paint0_linear_102_1166)" fill-opacity="0.25"/>
<defs>
<linearGradient id="paint0_linear_102_1166" x1="256" y1="0.0124308" x2="256" y2="509.346" gradientUnits="userSpaceOnUse">
<stop stop-color="white"/>
<stop offset="1" stop-color="white" stop-opacity="0"/>
</linearGradient>
</defs>
</svg>
