<svg width="552" height="1096" viewBox="0 0 552 1096" fill="none" xmlns="http://www.w3.org/2000/svg">
<rect x="0.5" y="0.5" width="551" height="1095" rx="4.5" stroke="#9747FF" stroke-dasharray="10 5"/>
<path d="M137.109 188.803H434.159V217.705L530.5 362.216H21.5L137.109 188.803Z" fill="white"/>
<path d="M434.962 188H136.679L20 363.019H532L434.962 217.461V188ZM433.356 189.606V217.948L528.999 361.413H22.9998L137.538 189.606H433.356Z" fill="black"/>
<path d="M137.109 188.803H175.645L60.0363 362.216H21.5L79.3044 275.509L21.5 188.803H60.0363L98.5725 246.607L137.109 188.803Z" fill="black" stroke="black"/>
<path d="M69.6704 362.216H108.207L185.279 246.607V362.216H223.815V188.803H185.279L69.6704 362.216Z" fill="black" stroke="black"/>
<path d="M231.844 362.216H270.38V246.607L308.916 304.412L347.453 246.607V362.216H385.989V188.803H337.818L308.916 246.607L270.38 188.803H231.844V362.216Z" fill="black" stroke="black"/>
<path d="M395.623 362.216H530.5L504.809 323.68H434.159V188.803H395.623V362.216Z" fill="black" stroke="black"/>
<g clip-path="url(#clip0_334_871)">
<path fill-rule="evenodd" clip-rule="evenodd" d="M434.962 732H136.679L98.0901 789.884L60.0363 732.803H21.5L78.822 818.786L20 907.019H532L434.962 761.461V732ZM175.11 733.606L60.5715 905.413H70.2056L184.744 733.606H175.11ZM223.815 733.606V905.413H231.844V733.606H223.815ZM347.453 790.607V905.413H270.38V790.607L308.916 848.412L347.453 790.607ZM395.623 905.413H385.989V733.606H395.623V905.413ZM503.843 867.68L434.159 763.153V867.68H503.843ZM270.915 733.606H337.417L308.916 790.607L270.915 733.606ZM185.279 905.413V790.607L108.742 905.413H185.279Z" fill="black" stroke="black"/>
</g>
<defs>
<clipPath id="clip0_334_871">
<rect width="512" height="512" fill="white" transform="translate(20 564)"/>
</clipPath>
</defs>
</svg>
